# xmcd
#
# Track frame offsets: 
#        182
#        21145
#        38230
#        56690
#        79980
#        101870
#        121890
#        140835
#        160307
#        176537
#        196710
#
# Disc length: 3076 seconds
#
# Revision: 8
# Processed by: cddbd v1.5.2PL0 Copyright (c) Steve Scherf et al.
# Submitted via: ExactAudioCopy v0.95b4
#
DISCID=950c020b
DTITLE=Loudness - On The Prowl
DYEAR=1991
DGENRE=Heavy Metal
TTITLE0=Down 'N' Dirty
TTITLE1=Playing Games
TTITLE2=Love Toys
TTITLE3=Never Again
TTITLE4=Deadly Player
TTITLE5=Take It Or Leave It
TTITLE6=Girl
TTITLE7=Long Distance
TTITLE8=In The Mirror
TTITLE9=Sleepless Night
TTITLE10=Find A Way
EXTD=Artist: Loudness\nCD: On The Prowl\nYear: 1991\n\n01. Down 'N Dir
EXTD=ty\n02. Playing Games\n03. Love Toys\n04. Never Again\n05. Deadly
EXTD=Prayer\n06. Take It Or Leave It\n07. Girl\n08. Long Distance\n09
EXTD=In The Mirror\n10. Sleepless Night\n11. Find A Way YEAR: 1991
EXTT0=
EXTT1=
EXTT2=
EXTT3=
EXTT4=
EXTT5=
EXTT6=
EXTT7=
EXTT8=
EXTT9=
EXTT10=
PLAYORDER=
